<svg width="24" height="24" viewBox="0 0 24 24" fill="none" xmlns="http://www.w3.org/2000/svg">
<path d="M21.856 10.303C21.942 10.857 22 11.421 22 12C22 18.075 17.075 23 11 23C4.925 23 0 18.075 0 12C0 5.925 4.925 1 11 1C13.347 1 15.518 1.741 17.304 2.993L15.882 4.45C14.474 3.537 12.8 3 11 3C6.038 3 2 7.038 2 12C2 16.962 6.038 21 11 21C15.894 21 19.879 17.072 19.99 12.205L21.856 10.303ZM20.904 2.167L11.5 11.806L7.657 8.192L4.562 11.29L11.5 18L24 5.263L20.904 2.167V2.167Z" fill="#27AE60"/>
</svg>
